<?xml version="1.0" encoding="utf-8"?>
<!-- Generator: Adobe Illustrator 27.5.0, SVG Export Plug-In . SVG Version: 6.00 Build 0)  -->
<svg version="1.1" id="Слой_1" xmlns="http://www.w3.org/2000/svg" xmlns:xlink="http://www.w3.org/1999/xlink" x="0px" y="0px"
	 viewBox="0 0 93 84" style="enable-background:new 0 0 93 84;" xml:space="preserve">
<style type="text/css">
	.st0{fill:#303646;}
	.st1{fill:#FFFFFF;}
	.st2{fill:#CD2B31;}
	.st3{fill:#BAB3B4;}
	.st4{opacity:9.000000e-02;fill:#1F1F39;enable-background:new    ;}
	.st5{opacity:0.23;fill:#1F1F39;enable-background:new    ;}
	.st6{fill:#543237;}
	.st7{opacity:0.47;fill:#1F1F39;enable-background:new    ;}
	.st8{opacity:0.22;fill:#1F1F39;enable-background:new    ;}
</style>
<path class="st0" d="M89,51.2c6.1-20,4.7-38.1-3.1-40.5C78,8.3,66.6,22.5,60.5,42.5c-6.1,20-4.7,38.1,3.1,40.5
	C71.5,85.4,82.8,71.2,89,51.2z"/>
<path class="st1" d="M86.6,50.5c6.1-20,5.2-38-2.1-40.2C77.2,8,66.3,22.4,60.2,42.4c-6.1,20-5.2,38,2.1,40.2
	C69.6,84.8,80.5,70.4,86.6,50.5z"/>
<path class="st2" d="M84.4,49.8c5.4-17.6,4.6-33.6-1.9-35.5c-6.4-2-16.1,10.7-21.5,28.4c-5.4,17.6-4.6,33.6,1.9,35.5
	C69.4,80.2,79,67.4,84.4,49.8z"/>
<path class="st1" d="M81.7,49c4.4-14.4,3.7-27.3-1.5-28.9c-5.2-1.6-13.1,8.7-17.5,23.1S59,70.4,64.2,72.1
	C69.4,73.7,77.3,63.3,81.7,49z"/>
<path class="st2" d="M79.9,47.7c3.6-11.7,3-22.2-1.2-23.5c-4.3-1.3-10.6,7.1-14.2,18.8c-3.6,11.7-3,22.2,1.2,23.5
	C70,67.7,76.3,59.3,79.9,47.7z"/>
<path class="st1" d="M76.2,47.3c2.4-7.8,2-14.8-0.8-15.7s-7.1,4.7-9.5,12.5s-2,14.8,0.8,15.7C69.5,60.7,73.8,55.1,76.2,47.3z"/>
<path class="st2" d="M74.3,45.9c1.2-3.9,1-7.5-0.4-7.9c-1.4-0.4-3.6,2.4-4.8,6.3c-1.2,3.9-1,7.5,0.4,7.9
	C71,52.7,73.1,49.9,74.3,45.9z"/>
<path class="st3" d="M67,40.4c-0.9,1.1-3.5,4.1-3.4,4.6c0.1,0.5,3.4-0.5,3.6-1.4C67.3,42.7,67,40.4,67,40.4z"/>
<path class="st1" d="M5.2,12c0.3-0.1,4.2-1.5,5.1-1.3c0.6,0.2,1.1,0.5,1.6,0.9c-2.5,1.3-4,2-5.2,1.4c-0.6-0.3-1-0.6-1.3-0.7
	C5.1,12.1,5.1,12.1,5.2,12z"/>
<path class="st4" d="M5.2,12c0.3-0.1,4.2-1.5,5.1-1.3c-0.2,0.5-3.5,2.2-4.9,1.6C5.1,12.1,5.1,12.1,5.2,12z"/>
<path class="st1" d="M3.7,11.1C4,11,7.9,9.6,8.8,9.8c0.6,0.2,1.2,0.5,1.6,0.9c-2.5,1.3-4.1,2-5.2,1.4c-0.6-0.3-1-0.6-1.3-0.7
	C3.6,11.2,3.6,11.2,3.7,11.1z"/>
<path class="st4" d="M3.7,11.1C4,11,7.9,9.6,8.8,9.8c-0.2,0.5-2.1,1.7-4.9,1.6C3.6,11.2,3.6,11.2,3.7,11.1z"/>
<path class="st1" d="M2,10c0.7,0,1.3-0.2,1.9-0.4l0,0c1.3-0.5,2.7-1,3.1-0.9c0.7,0.2,1.2,0.6,1.7,1.1C6.3,11,4.6,11.7,3.4,11
	c-0.6-0.3-1-0.6-1.3-0.7l-0.1,0C1.9,10.1,1.9,10.1,2,10z"/>
<path class="st4" d="M2,10c0.7,0,1.3-0.2,1.9-0.4l0,0c1.3-0.5,2.7-0.9,3.2-0.9c-0.2,0.5-2.7,1.6-4.9,1.6l-0.1-0.1
	C1.9,10.1,1.9,10.1,2,10z"/>
<path class="st1" d="M0.3,9c0.3-0.1,4.2-1.5,5.1-1.3C6,7.9,6.6,8.2,7.1,8.7C4.6,10,2.9,10.6,1.8,10c-0.6-0.3-1-0.6-1.3-0.7
	C0.2,9.1,0.2,9,0.3,9z"/>
<path class="st5" d="M0.3,9c0.3-0.1,4.2-1.5,5.1-1.3c-0.2,0.5-3,0.8-4.9,1.6C0.2,9.1,0.2,9,0.3,9z"/>
<path class="st6" d="M4.2,6.7c0.1,0.2,0.3,0.5,0.5,0.6c1.2,1.1,61,37.2,61.2,37.4c0,0,0.1,0,0.2,0c0.1,0,0.2-0.1,0.3-0.1
	c0.5-0.3,1.1-1,0.4-1.6c-0.1-0.1-0.1-0.1-0.2-0.1c0,0-59.5-37.2-60.7-37.3C5,5.5,4,6,4.2,6.7z"/>
<path class="st1" d="M10.1,3.9c0,0.3,0.5,4.4,1.1,5.1c0.4,0.5,0.9,0.8,1.5,1c0-2.8,0-4.5-1.1-5.3c-0.6-0.4-1-0.7-1.2-0.8
	C10.2,3.7,10.1,3.7,10.1,3.9z"/>
<path class="st4" d="M10.1,3.9c0,0.3,0.5,4.4,1.1,5.1c0.3-0.4,0.4-4.2-0.8-5.1C10.2,3.7,10.1,3.7,10.1,3.9z"/>
<path class="st1" d="M8.7,2.9c0,0.3,0.5,4.4,1.1,5.1c0.4,0.5,1,0.8,1.6,1c0-2.8-0.1-4.5-1.2-5.3C9.6,3.4,9.2,3.1,9,3
	C8.7,2.8,8.6,2.8,8.7,2.9z"/>
<path class="st4" d="M8.7,2.9c0,0.3,0.5,4.4,1.1,5.1c0.3-0.4,0.6-2.6-0.8-5.1C8.7,2.8,8.6,2.8,8.7,2.9z"/>
<path class="st1" d="M6.9,1.9c0.3,0.6,0.4,1.3,0.5,1.9c0,0,0,0,0,0C7.6,5.2,7.8,6.7,8,7c0.5,0.5,1.1,0.8,1.7,1
	c0-2.8-0.2-4.6-1.3-5.3c-0.6-0.4-1-0.7-1.2-0.8l-0.1,0C7,1.8,6.9,1.8,6.9,1.9z"/>
<path class="st4" d="M6.9,1.9c0.3,0.6,0.4,1.3,0.5,1.9c0,0,0,0,0,0C7.6,5.3,7.8,6.7,8.1,7c0.3-0.4,0.2-3.1-0.8-5.1L7.2,1.9
	C7,1.8,6.9,1.8,6.9,1.9z"/>
<path class="st1" d="M5.2,0.9c0,0.3,0.5,4.4,1.1,5.1C6.8,6.5,7.4,6.8,8,7c0-2.8-0.2-4.6-1.3-5.3C6.2,1.3,5.8,1,5.5,0.9
	C5.3,0.7,5.2,0.7,5.2,0.9z"/>
<path class="st5" d="M5.2,0.9c0,0.3,0.5,4.4,1.1,5.1c0.3-0.4-0.6-3.1-0.8-5.1C5.3,0.7,5.2,0.7,5.2,0.9z"/>
<path class="st7" d="M4.2,6.7c0.1,0.2,0.3,0.5,0.5,0.6c1.2,1.1,61,37.2,61.2,37.4c0,0.1,0.3,0,0.5-0.1C59.3,40.1,9.8,9.9,4.2,6.7z"
	/>
<path class="st1" d="M63.5,45.2c-0.1,0.7,7.5,2.1,8.1,1.7l0,0c0.4-0.5-4.2-6.5-4.6-6.4c-0.4,0.1-0.6,2.2-1.1,3.2l0,0
	C65.3,44.6,63.5,44.7,63.5,45.2z"/>
<path class="st8" d="M63.5,45.2c-0.1,0.7,7.5,2.1,8.1,1.7c-2.2-1.8-4.4-2.9-5.7-3.2C65.3,44.6,63.5,44.7,63.5,45.2z"/>
</svg>
