<?xml version="1.0" encoding="utf-8"?>
<!-- Generator: Adobe Illustrator 27.5.0, SVG Export Plug-In . SVG Version: 6.00 Build 0)  -->
<svg version="1.1" id="Слой_1" xmlns="http://www.w3.org/2000/svg" xmlns:xlink="http://www.w3.org/1999/xlink" x="0px" y="0px"
	 viewBox="0 0 392 471" style="enable-background:new 0 0 392 471;" xml:space="preserve">
<style type="text/css">
	.st0{fill:#FFFFFF;}
	.st1{fill:#263238;}
	.st2{fill:#EBEBEB;}
	.st3{fill:#F5F5F5;}
	.st4{fill:#029491;}
	.st5{opacity:0.3;}
	.st6{fill:#455A64;}
	.st7{opacity:0.6;}
	.st8{fill:#FFBE9D;}
	.st9{fill:#EB996E;}
	.st10{fill:#FFB64F;}
</style>
<g>
	<path class="st0" d="M391.6,118.7H91.8v225.2h299.7V118.7z"/>
	<path class="st1" d="M391.6,343.9c0,0,0-0.4,0-1.1c0-0.7,0-1.7,0-3.1c0-2.7,0-6.7,0-12c0-10.5-0.1-25.9-0.1-45.5
		c0-39.2-0.1-95.5-0.2-163.6l0.4,0.4l-299.7,0.1l0.5-0.5c0,81,0,157.7,0,225.2l-0.5-0.5l216.3,0.2l61.4,0.1l16.3,0.1h4.2h1.1h-1.1
		h-4.1l-16.2,0.1l-61.3,0.1l-216.6,0.2h-0.6v-0.5c0-67.6,0-144.2-0.1-225.2v-0.5h0.6l299.7,0.1h0.4v0.4
		c-0.1,68.2-0.2,124.6-0.2,163.9c-0.1,19.6-0.1,35-0.1,45.4c0,5.2,0,9.2,0,11.9c0,1.3,0,2.3,0,3
		C391.7,343.5,391.6,343.9,391.6,343.9z"/>
	<path class="st1" d="M390.1,146.3c-0.2,0-0.5,0-0.8,0.1h-2.2l-8.5,0.1c-7.4,0.1-18.2,0.1-31.4,0.1c-26.6,0-63.2-0.2-103.7-0.5
		l-103.7-0.8l-31.4-0.2l-8.5-0.1l-2.2-0.1c-0.2,0-0.5,0-0.8,0c0.2,0,0.5-0.1,0.8-0.1h2.2l8.5-0.1c7.4-0.1,18.2-0.1,31.4-0.1
		c26.5,0,63.2,0.2,103.7,0.5l103.7,0.8l31.4,0.2l8.5,0.1h2.2C389.5,146.2,389.8,146.3,390.1,146.3z"/>
	<path class="st1" d="M111.4,130.1c0,0.7-0.2,1.4-0.6,2c-0.4,0.6-0.9,1-1.6,1.3c-0.6,0.3-1.4,0.3-2,0.2c-0.7-0.1-1.3-0.5-1.8-1
		c-0.5-0.5-0.8-1.1-1-1.8c-0.1-0.7-0.1-1.4,0.2-2c0.3-0.6,0.7-1.2,1.3-1.6c0.6-0.4,1.3-0.6,2-0.6c0.9,0,1.8,0.4,2.5,1
		C111,128.3,111.4,129.2,111.4,130.1z"/>
	<path class="st1" d="M125.5,130.1c0,0.7-0.2,1.4-0.6,2s-0.9,1-1.6,1.3s-1.4,0.3-2,0.2c-0.7-0.1-1.3-0.5-1.8-1
		c-0.5-0.5-0.8-1.1-1-1.8c-0.1-0.7-0.1-1.4,0.2-2s0.7-1.2,1.3-1.6c0.6-0.4,1.3-0.6,2-0.6c0.9,0,1.8,0.4,2.5,1
		C125.1,128.3,125.5,129.2,125.5,130.1z"/>
	<path class="st1" d="M136.1,133.7c2,0,3.5-1.6,3.5-3.5s-1.6-3.5-3.5-3.5c-1.9,0-3.5,1.6-3.5,3.5S134.2,133.7,136.1,133.7z"/>
	<path class="st2" d="M205.7,277h-61.6v46.1h61.6V277z"/>
	<path class="st2" d="M273.3,277h-61.6v46.1h61.6V277z"/>
	<path class="st2" d="M352.1,277h-61.6v46.1h61.6V277z"/>
	<path class="st3" d="M252.1,256.2c-29-19.3-25.6-59.4-18.1-76.6l22.6-3.9c-7.6,9.4-8.4,43.5,1.2,50.8c9.6,7.4,27.5,7.3,34.6-2.6
		c5.6-7.7,6.3-25.6,15.7-27c-3.9-20,10.2-41.7,30-46.3c1.1-5.6,3.4-10.9,6.8-15.5c3.4-4.6,7.8-8.4,12.9-11
		c5.1-2.6,10.7-4.1,16.4-4.3s11.4,1,16.7,3.3l-0.4,64.7c0,0,6.2,30.7-13,37.9c-6.5,2.4-13,1-18.5-1.6c-0.4,1-1,1.9-1.8,2.6
		c-3,2.9-7.6,3.7-11.7,2.8c-0.5-0.1-1-0.2-1.6-0.4c-4.3,13.2-16.7,27.5-28.1,33.4C299.3,271.1,267.7,266.5,252.1,256.2z"/>
	<path class="st1" d="M311.9,203.7c0,0,0-0.1-0.1-0.3l-0.4-0.9c-0.2-0.4-0.4-0.9-0.7-1.5c-0.2-0.6-0.5-1.3-0.8-2.1
		c-1.6-4.4-2.3-9.1-2-13.8c0.1-3.2,0.7-6.4,1.8-9.4c1.2-3.5,2.9-6.8,5.2-9.8c5.2-6.8,12.7-11.5,21.1-13.2c1.2-0.3,2.4-0.4,3.6-0.5
		l0.2,0l0-0.2c0.4-4.9,1.8-9.7,4.2-14.1c2.4-4.3,5.6-8.1,9.5-11.2c1.4-1,2.8-1.9,4.3-2.8c2.6-1.5,5.5-2.7,8.4-3.5
		c4.2-1.2,8.7-1.5,13-0.8c0.8,0.1,1.4,0.3,2,0.4c0.5,0.1,1,0.2,1.5,0.4l0.9,0.3c0.1,0,0.2,0.1,0.3,0.1c0,0-0.1-0.1-0.3-0.1l-0.9-0.3
		c-0.5-0.2-1-0.3-1.5-0.4c-0.6-0.2-1.2-0.3-2-0.5c-4.4-0.8-8.9-0.6-13.2,0.6c-3,0.8-5.8,2-8.5,3.5c-1.5,0.8-2.9,1.8-4.3,2.8
		c-1.5,1.1-2.8,2.3-4.1,3.6c-5.7,5.9-9.2,13.7-9.9,21.9l0.2-0.2c-4.9,0.5-9.6,2-13.9,4.4c-4.3,2.4-8.1,5.7-11,9.6
		c-2.3,3-4.1,6.3-5.2,9.9c-1,3.1-1.6,6.3-1.7,9.6c-0.2,4.7,0.5,9.5,2.2,13.9c0.2,0.7,0.5,1.4,0.8,2c0.2,0.5,0.4,1,0.7,1.5
		c0.2,0.4,0.4,0.7,0.5,0.9C311.7,203.5,311.8,203.6,311.9,203.7z"/>
	<path class="st1" d="M300.2,209.3c0.1,0,0-0.9,0.3-2.3c0.2-0.8,0.4-1.6,0.7-2.4c0.4-0.9,0.9-1.8,1.5-2.6c0.6-0.8,1.4-1.5,2.2-2.1
		c0.7-0.5,1.4-0.9,2.1-1.2c1.3-0.6,2.2-0.7,2.2-0.8c0-0.1-0.2,0-0.6,0c-0.6,0.1-1.1,0.2-1.7,0.4c-0.8,0.3-1.6,0.7-2.3,1.2
		c-1.7,1.2-3.1,2.9-3.9,4.9c-0.3,0.8-0.5,1.6-0.6,2.5c-0.1,0.6-0.1,1.2,0,1.7C300.1,209.1,300.1,209.3,300.2,209.3z"/>
	<path class="st1" d="M310.4,233.7c0,0,0-0.6,0.3-1.8c0.3-1.6,0.9-3.1,1.8-4.5c1.3-2,3.3-3.6,5.6-4.4c2.9-1,6-0.9,8.8,0.3l0.4,0.2
		l0-0.4c0-1.4,0.1-2.7,0.3-4.1c0.7-3.5,2.3-6.7,4.7-9.3c2-2.1,4.5-3.7,7.2-4.6c1.8-0.7,3.8-1,5.7-1.1c1.4,0,2.1,0,2.1,0
		c-0.2-0.1-0.4-0.1-0.6-0.1c-0.5-0.1-1.1-0.1-1.6-0.1c-2.5,0-4.9,0.5-7.2,1.5c-2.3,1-4.3,2.4-6,4.1c-1.7,1.8-3.1,4-4,6.3
		c-0.9,2.4-1.3,4.9-1.2,7.4l0.4-0.2c-2.9-1.3-6.2-1.4-9.2-0.2c-2.4,0.9-4.4,2.5-5.7,4.7c-0.9,1.4-1.5,3-1.7,4.6
		c-0.1,0.4-0.1,0.9-0.1,1.3C310.3,233.3,310.3,233.5,310.4,233.7z"/>
	<path class="st1" d="M237.5,241c0.1,0.2,0.2,0.5,0.4,0.7c0.3,0.4,0.7,1.1,1.3,2c1.6,2.3,3.5,4.5,5.5,6.5c3,2.9,6.4,5.5,10,7.7
		c2.1,1.3,4.4,2.4,6.6,3.5c2.4,1.1,4.9,2.1,7.5,2.9c9,3,18.4,4.4,27.8,4.2c2.9-0.1,5.7-0.4,8.5-0.9c1-0.2,1.7-0.4,2.3-0.6
		c0.3-0.1,0.5-0.2,0.8-0.3c-0.3,0-0.5,0.1-0.8,0.2c-0.5,0.1-1.3,0.3-2.3,0.5c-2.8,0.5-5.6,0.7-8.5,0.8c-9.4,0.1-18.7-1.4-27.6-4.3
		c-2.5-0.8-5-1.8-7.4-2.9c-2.3-1-4.5-2.2-6.6-3.4c-3.6-2.1-7-4.7-10.1-7.6c-2-2-3.9-4.1-5.6-6.4c-0.6-0.8-1-1.5-1.3-1.9
		C237.8,241.4,237.7,241.2,237.5,241z"/>
	<path class="st1" d="M252.7,217.8c0.1,0.5,0.2,0.9,0.4,1.3c0.4,1.2,0.9,2.3,1.5,3.3c2,3.5,5,6.4,8.5,8.4c3.6,2,7.6,2.9,11.7,2.7
		c1.2-0.1,2.4-0.2,3.6-0.5c0.4-0.1,0.9-0.2,1.3-0.4c-1.6,0.3-3.3,0.4-4.9,0.5c-4,0.1-7.9-0.8-11.4-2.8c-3.5-1.9-6.4-4.7-8.5-8.1
		C254.1,220.8,253.4,219.3,252.7,217.8z"/>
	<path class="st4" d="M248.2,172.4c2.1,4.2,3.3,8.8,3.6,13.5c0,0.7-0.1,1.3-0.5,1.9c-0.4,0.6-0.9,1-1.5,1.2c-0.6,0.2-1.3,0.3-2,0.1
		c-0.6-0.2-1.2-0.5-1.7-1l-0.1,0c0.7,5.7,1,11.4,0.9,17.2c0,0.8-0.3,1.6-0.7,2.3c-0.5,0.7-1.1,1.2-1.9,1.4c-0.8,0.3-1.6,0.3-2.4,0.1
		c-0.8-0.2-1.5-0.7-2-1.3c-9.2-11.2-14.1-25.4-13.6-39.9L248.2,172.4z"/>
	<g class="st5">
		<path d="M245.7,177.6c0.4,0.7,0.6,1.5,0.7,2.3c0,0.4,0,0.8-0.2,1.2c-0.2,0.4-0.5,0.7-0.8,0.9c-1.1,0.5-2.5-0.4-3.5,0.2
			c-1.1,0.6-1,2.2-0.7,3.5l0.9,3.9c0.2,1,0.4,2.2-0.4,2.7c-0.8,0.6-2.1,0-2.9-0.7c-1.9-1.7-3.3-3.9-4.1-6.3c-0.9-2.4-1.1-5-0.8-7.5
			L245.7,177.6z"/>
	</g>
	<path class="st4" d="M246.7,223.1c0.8,0.5,1.3,1.3,1.5,2.2c0.2,0.9,0.1,1.8-0.4,2.6c-0.5,0.8-1.2,1.3-2.1,1.6
		c-0.9,0.2-1.8,0.1-2.6-0.4c-0.8-0.5-1.4-1.2-1.6-2.1c-0.2-0.9-0.1-1.8,0.3-2.6c0.5-0.8,1.2-1.4,2.1-1.6c0.9-0.3,1.8-0.2,2.6,0.3"/>
	<path class="st3" d="M236,2.6c5.2-0.2,15.3,13,25.1,35.2c5.8,13.1,9.4,27.1,10.8,41.3l3.7,97.1l-25.6,1l-14.8,0.6l-25.6,1
		l-3.3-88.2c-0.3-8.6,0.2-17.3,1.5-25.8c1.3-8.5,3.2-17,5.9-25.2C221.2,16.6,230.8,2.8,236,2.6z"/>
	<path class="st4" d="M207.3,117.9l-0.2,0.2c-6.9,6-12.4,13.5-16.1,21.9c-3.6,8.4-5.4,17.5-5,26.7l0.4,11.6l22.5-16.9L207.3,117.9z"
		/>
	<path class="st1" d="M207.3,117.9l0,0.2l0,0.6l0.1,2.4l0.3,9l1.1,31.3l0.1-0.1l-20.5,15.5l-2,1.5l0.3,0.2l-0.3-6.9
		c-0.1-2.3-0.2-4.5-0.2-6.6c0-4.2,0.4-8.4,1.2-12.5c0.7-3.7,1.8-7.3,3.2-10.8c0.6-1.7,1.4-3.2,2.1-4.7c0.7-1.5,1.5-2.9,2.3-4.1
		c2.4-4.1,5.3-7.8,8.6-11.2c1.1-1.2,2.1-2.1,2.8-2.7L207.3,117.9l-0.3,0.3l-0.7,0.6c-0.6,0.6-1.7,1.4-2.8,2.6
		c-3.4,3.4-6.3,7.1-8.8,11.2c-0.8,1.3-1.6,2.7-2.3,4.1c-0.7,1.5-1.5,3-2.1,4.7c-1.4,3.5-2.5,7.2-3.3,10.9c-0.8,4.1-1.2,8.3-1.2,12.5
		c0,2.2,0.1,4.4,0.2,6.7l0.3,6.9l0,0.3l0.3-0.2l2-1.5l20.5-15.4l0-0.1l0-0.1l-1.3-31.4l-0.4-9l-0.1-2.4c0-0.3,0-0.5,0-0.6
		L207.3,117.9z"/>
	<path class="st4" d="M273.4,115.4c0,0,0.1,0.1,0.3,0.2c7.3,5.4,13.2,12.4,17.4,20.4c4.2,8,6.6,16.9,6.9,25.9l0.4,11.5l-23.4-15
		L273.4,115.4z"/>
	<path class="st1" d="M273.4,115.4l0,0.2l0,0.6l0.1,2.4l0.3,8.8l1.1,31l0,0.1l0.1,0c6.6,4.2,13.8,8.8,21.3,13.7
		c0.7,0.4,1.4,0.9,2.1,1.3l0.3,0.2l0-0.3l-0.3-6.8c-0.1-2.2-0.1-4.4-0.3-6.6c-0.3-4.1-1-8.2-2.1-12.2c-1-3.6-2.3-7.1-4-10.4
		c-0.7-1.6-1.6-3-2.4-4.5c-0.8-1.4-1.7-2.7-2.6-3.9c-2.7-3.8-5.9-7.3-9.4-10.4c-1.2-1.1-2.3-1.8-3-2.4c-0.3-0.3-0.6-0.5-0.8-0.6
		C273.4,115.4,273.4,115.4,273.4,115.4c0.2,0.1,0.4,0.4,1,0.8s1.7,1.3,2.9,2.4c3.5,3.1,6.6,6.6,9.3,10.4c0.9,1.2,1.7,2.5,2.6,3.9
		c0.9,1.3,1.7,2.9,2.4,4.4c1.7,3.3,3,6.8,4,10.4c1.1,4,1.8,8,2.1,12.2c0.2,2.1,0.2,4.3,0.3,6.6l0.3,6.8l0.3-0.2
		c-0.7-0.4-1.4-0.9-2.1-1.3c-7.6-4.8-14.8-9.4-21.3-13.6l0.1,0.1l-1.3-30.8l-0.4-8.9l-0.1-2.4l0-0.6L273.4,115.4z"/>
	<path class="st4" d="M236,2.6c4-0.3,11,7.7,18.5,21.5l-36.7,3.9C224.2,13.4,230.9,3,236,2.6z"/>
	<path class="st1" d="M209.7,162.9c0,0.1,14.6-0.3,32.7-0.9c18-0.6,32.7-1.1,32.7-1.2c0-0.1-14.6,0.3-32.7,0.9
		C224.3,162.3,209.7,162.8,209.7,162.9z"/>
	<path class="st1" d="M210.1,165.9c0,0.1,14.6-0.3,32.7-0.9c18-0.6,32.7-1.1,32.7-1.2c0-0.1-14.6,0.3-32.7,0.9
		C224.7,165.2,210.1,165.8,210.1,165.9z"/>
	<path class="st1" d="M210.2,169c0,0.1,14.6-0.3,32.7-0.9c18-0.6,32.7-1.1,32.7-1.2c0-0.1-14.6,0.3-32.7,0.9
		C224.8,168.3,210.2,168.9,210.2,169z"/>
	<path class="st1" d="M210.2,172.1c0,0.1,14.7-0.3,32.7-0.9c18-0.6,32.7-1.2,32.7-1.2c0,0-14.6,0.3-32.7,0.9
		C224.8,171.5,210.2,172,210.2,172.1z"/>
	<path class="st1" d="M210.3,175.2c0,0.1,14.6-0.3,32.7-0.9c18.1-0.6,32.7-1.1,32.7-1.2c0-0.1-14.6,0.3-32.7,0.9
		S210.3,175.1,210.3,175.2z"/>
	<path class="st1" d="M240.2,116.7c0,0-0.1,0.1-0.1,0.5c0,0.3,0,0.7,0,1.3c0,1.2,0,2.8,0.1,4.8c0.1,4.1,0.4,9.7,0.7,16
		c0.3,6.2,0.6,11.9,0.8,16l0.3,4.8l0.1,1.3c0,0.2,0,0.3,0.1,0.5c0-0.2,0-0.3,0-0.5l0-1.3l-0.2-4.8l-0.8-15.9l-0.8-16l-0.2-4.8
		c0-0.6-0.1-1,0-1.3L240.2,116.7z"/>
	<path class="st1" d="M207.3,117.9c0,0.1,14.7-0.4,32.7-1c18.1-0.7,32.7-1.3,32.7-1.4c0-0.1-14.7,0.4-32.7,1
		C222,117.2,207.3,117.8,207.3,117.9z"/>
	<path class="st1" d="M236.1,148.9c-0.1-0.1-0.3-0.2-0.4-0.2c-0.4-0.2-0.9-0.2-1.4-0.1c-0.3,0.1-0.6,0.3-0.9,0.5
		c-0.2,0.2-0.4,0.6-0.5,0.9c-0.1,0.4-0.1,0.9,0,1.3c0.1,0.4,0.4,0.8,0.8,1c0.4,0.3,0.8,0.4,1.2,0.4c0.4,0,0.9-0.1,1.2-0.4
		c0.3-0.2,0.5-0.5,0.7-0.8c0.2-0.3,0.2-0.7,0.2-1c0-0.5-0.2-0.9-0.4-1.3c-0.2-0.2-0.4-0.3-0.4-0.3c0,0,0.1,0.1,0.3,0.4
		c0.2,0.4,0.3,0.8,0.3,1.2c0,0.3-0.1,0.6-0.2,0.9c-0.2,0.3-0.4,0.5-0.6,0.6c-0.3,0.2-0.7,0.3-1,0.3c-0.4,0-0.7-0.1-1-0.3
		c-0.3-0.2-0.5-0.5-0.7-0.9c-0.1-0.4-0.1-0.7,0-1.1c0.1-0.3,0.2-0.6,0.4-0.8c0.2-0.2,0.5-0.4,0.8-0.5c0.4-0.1,0.8-0.2,1.2-0.1
		C236,148.9,236.1,149,236.1,148.9z"/>
	<path class="st1" d="M235.1,130.2c0,0-0.1-0.1-0.4-0.2c-0.4-0.2-0.9-0.2-1.4-0.1c-0.3,0.1-0.7,0.3-0.9,0.5
		c-0.2,0.2-0.4,0.6-0.5,0.9c-0.1,0.4-0.1,0.9,0,1.3c0.1,0.4,0.4,0.8,0.8,1c0.4,0.3,0.8,0.4,1.2,0.4c0.4,0,0.9-0.1,1.2-0.4
		c0.3-0.2,0.5-0.5,0.7-0.8c0.2-0.3,0.2-0.7,0.2-1c0-0.5-0.2-0.9-0.4-1.2c-0.1-0.1-0.2-0.2-0.4-0.3c0,0,0.1,0.1,0.3,0.4
		c0.2,0.4,0.3,0.8,0.3,1.2c0,0.3-0.1,0.6-0.2,0.9c-0.2,0.3-0.4,0.5-0.6,0.6c-0.3,0.2-0.7,0.3-1,0.3c-0.4,0-0.7-0.1-1-0.3
		c-0.3-0.2-0.5-0.5-0.7-0.9c-0.1-0.3-0.1-0.7,0-1.1c0.1-0.3,0.2-0.6,0.4-0.8c0.2-0.2,0.5-0.4,0.8-0.5c0.4-0.1,0.8-0.2,1.2-0.1
		C234.9,130.1,235.1,130.2,235.1,130.2z"/>
	<path class="st1" d="M244.1,100.6c-0.1-0.1-0.3-0.2-0.4-0.2c-0.4-0.2-0.9-0.2-1.4-0.1c-0.4,0.1-0.7,0.3-0.9,0.5
		c-0.3,0.3-0.4,0.6-0.5,0.9c-0.1,0.4-0.1,0.9,0,1.3c0.1,0.4,0.4,0.8,0.8,1c0.4,0.3,0.8,0.4,1.2,0.4c0.4,0,0.9-0.1,1.2-0.4
		c0.3-0.2,0.5-0.5,0.7-0.8c0.2-0.3,0.2-0.7,0.2-1c0-0.5-0.2-0.9-0.4-1.2c-0.2-0.3-0.4-0.3-0.4-0.3c0.1,0.1,0.2,0.3,0.3,0.4
		c0.2,0.4,0.3,0.8,0.3,1.2c0,0.3-0.1,0.6-0.2,0.9c-0.2,0.3-0.4,0.5-0.6,0.6c-0.3,0.2-0.7,0.3-1,0.3c-0.4,0-0.7-0.1-1-0.3
		c-0.3-0.2-0.5-0.5-0.6-0.9c-0.1-0.3-0.1-0.7-0.1-1.1c0.1-0.3,0.2-0.6,0.4-0.8c0.2-0.2,0.5-0.4,0.8-0.5c0.4-0.1,0.8-0.2,1.2-0.1
		C243.9,100.5,244.1,100.6,244.1,100.6z"/>
	<path class="st1" d="M248.1,87.3c-0.1,0-0.3,6.6-0.5,14.6c-0.2,8-0.2,14.6-0.1,14.6c0.1,0,0.3-6.6,0.5-14.6
		C248.2,93.9,248.2,87.4,248.1,87.3z"/>
	<g class="st5">
		<path d="M274.9,157.2c0,0-1.7-28.2-1.6-41.8c3,6.5,6.3,13.9,7.2,21C281.3,143.8,279.3,151.2,274.9,157.2z"/>
	</g>
	<path class="st0" d="M234.2,89.1c-10.6-2.7-17-13.4-14.4-24c2.7-10.6,13.4-17,24-14.4c10.6,2.7,17,13.4,14.4,24
		C255.6,85.3,244.8,91.7,234.2,89.1z"/>
	<path class="st1" d="M230,87.5c-0.1-0.1-0.2-0.1-0.3-0.2c-0.2-0.1-0.5-0.3-0.8-0.5c-0.4-0.3-0.9-0.5-1.3-0.9
		c-0.6-0.4-1.1-0.8-1.6-1.3c-1.4-1.3-2.6-2.7-3.6-4.4c-1.3-2.1-2.2-4.5-2.6-7c-0.6-3.2-0.3-6.5,0.7-9.6c1.1-3.1,2.9-5.9,5.3-8.1
		c1.4-1.3,2.9-2.4,4.6-3.2c0.9-0.4,1.8-0.8,2.7-1.1c0.9-0.3,1.9-0.5,2.9-0.6c4.1-0.7,8.3,0,12,1.9c3.7,1.9,6.7,4.9,8.5,8.7
		c0.4,0.9,0.8,1.8,1.1,2.7c0.3,0.9,0.5,1.9,0.7,2.8c0.3,1.9,0.4,3.8,0.1,5.6c-0.4,3.5-1.8,6.7-3.9,9.5c-1.7,2.2-3.9,4-6.3,5.3
		c-2.5,1.3-5.2,2.1-7.9,2.3c-1.9,0.1-3.8,0-5.7-0.4c-0.7-0.1-1.3-0.3-2-0.6c-0.5-0.1-1-0.3-1.4-0.5c-0.4-0.2-0.6-0.3-0.9-0.4
		C230.2,87.5,230.1,87.5,230,87.5c0.1,0.1,0.2,0.1,0.3,0.2c0.2,0.1,0.5,0.2,0.8,0.4c0.5,0.2,0.9,0.4,1.4,0.6c0.6,0.2,1.3,0.4,2,0.6
		c1.9,0.5,3.8,0.7,5.7,0.6c2.8-0.2,5.6-0.9,8.1-2.2c2.5-1.3,4.7-3.1,6.5-5.4c2.2-2.8,3.6-6.2,4.1-9.7c0.3-1.9,0.2-3.9-0.1-5.8
		c-0.3-2-0.9-3.9-1.8-5.7c-0.9-1.9-2.1-3.6-3.6-5.1c-1.5-1.5-3.3-2.8-5.2-3.8c-3.8-1.9-8.1-2.6-12.3-1.9c-1,0.2-2,0.4-3,0.7
		c-0.9,0.3-1.9,0.7-2.8,1.1c-1.7,0.8-3.3,1.9-4.7,3.3c-2.6,2.4-4.5,5.5-5.6,9c-0.8,2.7-1,5.6-0.6,8.4c0.4,2.8,1.4,5.5,2.9,7.9
		c1,1.6,2.3,3.1,3.7,4.4c0.5,0.5,1.1,0.9,1.7,1.3c0.4,0.3,0.8,0.6,1.3,0.8c0.3,0.2,0.6,0.4,0.8,0.5C229.8,87.5,229.9,87.5,230,87.5z
		"/>
	<path class="st1" d="M236,2.6c-0.1,0-0.2,0-0.2,0c-0.2,0-0.5,0.1-0.7,0.1c-0.9,0.3-1.7,0.7-2.4,1.3c-2.7,2.3-5,4.9-6.8,8
		c-3,4.7-5.5,9.7-7.7,14.8c-2.9,6.8-5.3,13.8-7.2,21c-1,4-2,8.2-2.8,12.7c-0.9,4.6-1.5,9.3-1.9,14c-0.4,5.1-0.5,10.1-0.4,15.2
		l0.6,16.2l2.7,72.8l0,0.3l0.3,0c10.6-0.4,21.7-0.8,33-1.2c11.3-0.4,22.4-0.9,33-1.3h0.3l0-0.3l-2.7-72.9l-0.6-16.2l-0.3-7.7
		c-0.2-2.5-0.5-5-0.8-7.5c-1.4-8.9-3.7-17.7-6.8-26.2c-2.6-6.9-5.7-13.7-9.2-20.3c-2.6-4.9-5.5-9.7-8.8-14.2c-2-2.9-4.4-5.4-7.2-7.5
		c-0.7-0.5-1.6-0.9-2.5-1.1c-0.2-0.1-0.5-0.1-0.7-0.1C236.2,2.6,236.1,2.6,236,2.6c0.3,0,0.6,0,0.9,0.1c0.9,0.2,1.7,0.6,2.4,1.1
		c2.8,2.1,5.2,4.7,7.2,7.6c3.2,4.5,6.1,9.3,8.7,14.2c3.4,6.5,6.5,13.3,9,20.2c3.1,8.5,5.3,17.3,6.7,26.2c0.4,2.4,0.7,4.9,0.8,7.4
		l0.3,7.7l0.6,16.2l2.7,72.9l0.3-0.3l-33,1.2l-33,1.2l0.3,0.3l-2.8-72.8l-0.6-16.2c-0.2-5.1-0.1-10.1,0.3-15.2c0.4-4.9,1-9.5,1.8-14
		c0.8-4.4,1.7-8.7,2.7-12.7c1.9-7.2,4.3-14.2,7.1-21c2.1-5.1,4.6-10.1,7.6-14.8c1.8-3,4-5.7,6.7-8c0.7-0.6,1.5-1,2.3-1.3
		C235.4,2.7,235.7,2.7,236,2.6z"/>
	<path class="st0" d="M328.8,262H154.6c-5.5,0-10.7-2.2-14.6-6c-3.9-3.9-6-9.1-6-14.6s2.2-10.7,6-14.6c3.9-3.9,9.1-6,14.6-6h174.3
		c5.5,0,10.7,2.2,14.6,6c3.9,3.9,6,9.1,6,14.6s-2.2,10.7-6,14.6C339.5,259.8,334.3,262,328.8,262z"/>
	<path class="st1" d="M328.8,262l1.2-0.1c0.5,0,1-0.1,1.5-0.2c0.7-0.1,1.4-0.2,2.1-0.4l1.2-0.3c0.4-0.1,0.9-0.3,1.3-0.5l0.7-0.3
		l0.7-0.4c0.5-0.2,1-0.5,1.5-0.8c2.3-1.3,4.3-3.1,6-5.2c0.5-0.6,0.9-1.2,1.3-1.9c0.4-0.7,0.8-1.4,1.1-2.2c0.4-0.8,0.7-1.6,0.9-2.4
		c0.1-0.4,0.2-0.8,0.3-1.3l0.2-0.7l0.1-0.7l0.2-1.4l0.1-1.4v-0.7v-0.7c0-0.5,0-1-0.1-1.5c-0.2-2-0.8-4-1.6-5.9
		c-1.9-4.2-5.1-7.7-9.1-9.8c-2.2-1.2-4.6-1.9-7-2.2c-2.5-0.3-5.2-0.1-7.9-0.2l-169,0.1c-2,0-4.1,0.3-6,0.9c-1.9,0.6-3.8,1.5-5.4,2.6
		c-1.6,1.1-3.1,2.5-4.4,4c-1.2,1.6-2.3,3.3-3,5.1c-0.7,1.8-1.2,3.8-1.4,5.7c-0.2,2-0.1,3.9,0.3,5.8c0.8,3.8,2.6,7.4,5.3,10.2
		c2.7,2.8,6,4.7,9.8,5.6c0.9,0.2,1.8,0.4,2.8,0.5c0.9,0,1.9,0.1,2.8,0.1h27.6l76,0.1l51.2,0.1l13.9,0h3.6h1.2h-1.2H324H310
		l-51.2,0.1l-76,0.1h-27.6c-0.9,0-1.9-0.1-2.9-0.1c-1-0.1-1.9-0.3-2.8-0.5c-3.8-0.9-7.3-2.9-10-5.8c-1.4-1.4-2.5-3-3.5-4.8
		c-0.9-1.8-1.6-3.7-2-5.6c-0.4-2-0.5-4-0.3-6c0.4-4.1,2-8,4.5-11.1c2.6-3.2,6.1-5.6,10.1-6.8c2-0.6,4.1-0.9,6.2-0.9l169,0.1
		c2.7,0,5.3-0.1,7.9,0.2c2.5,0.3,4.9,1.1,7.2,2.3c4.1,2.2,7.3,5.8,9.2,10c0.8,1.9,1.4,3.9,1.6,6c0,0.5,0,1,0.1,1.5v0.7v0.7
		c0,0.5,0,1-0.1,1.4c0,0.4-0.2,0.9-0.2,1.4l-0.1,0.7l-0.2,0.7c-0.1,0.4-0.2,0.9-0.3,1.3c-0.3,0.8-0.6,1.7-0.9,2.4
		c-0.3,0.8-0.7,1.5-1.2,2.2c-0.4,0.7-0.8,1.3-1.3,1.9c-1.6,2.1-3.7,3.9-6,5.3c-0.5,0.3-1,0.5-1.5,0.8l-0.7,0.3l-0.7,0.3
		c-0.5,0.2-0.9,0.3-1.3,0.5l-1.2,0.3c-0.7,0.2-1.4,0.3-2.1,0.4c-0.5,0.1-1,0.1-1.5,0.1L328.8,262z"/>
	<path class="st0" d="M327.4,245.6c3.6-3.6,3.6-9.4,0-13c-3.6-3.6-9.4-3.6-13,0c-3.6,3.6-3.6,9.4,0,13
		C318,249.1,323.8,249.1,327.4,245.6z"/>
	<path class="st1" d="M320.9,249.9c-1.9,0-3.8-0.6-5.4-1.6c-1.6-1.1-2.8-2.6-3.6-4.3c-0.7-1.8-0.9-3.7-0.6-5.6
		c0.4-1.9,1.3-3.6,2.6-5c1.4-1.4,3.1-2.3,5-2.6c1.9-0.4,3.8-0.2,5.6,0.6c1.8,0.7,3.3,2,4.3,3.6c1.1,1.6,1.6,3.5,1.6,5.4
		c0,2.6-1,5-2.8,6.8C325.9,248.9,323.5,249.9,320.9,249.9z M320.9,231.6c-1.7,0-3.4,0.5-4.8,1.5c-1.4,1-2.5,2.3-3.2,3.9
		c-0.7,1.6-0.8,3.3-0.5,5c0.3,1.7,1.2,3.2,2.4,4.4c1.2,1.2,2.8,2,4.4,2.4c1.7,0.3,3.4,0.2,5-0.5c1.6-0.7,2.9-1.8,3.9-3.2
		s1.5-3.1,1.5-4.8c0-2.3-0.9-4.5-2.5-6.1C325.4,232.5,323.2,231.6,320.9,231.6z"/>
	<path class="st1" d="M328.6,245.3l-0.5,0.8l7.8,4.9l0.5-0.8L328.6,245.3z"/>
	<path class="st6" d="M65.7,438.8l0.6,29.2l-38.4,0.9C28,465.4,47.7,458,47.7,458l-1.2-18.7L65.7,438.8z"/>
	<g class="st7">
		<path class="st0" d="M59.6,456.2c0.4,0.1,0.7,0.3,0.9,0.6c0.2,0.3,0.3,0.7,0.2,1.1c-0.1,0.4-0.3,0.7-0.7,0.9
			c-0.3,0.2-0.7,0.3-1.1,0.2c-0.2,0-0.4-0.1-0.6-0.2c-0.2-0.1-0.3-0.2-0.4-0.4c-0.1-0.2-0.2-0.4-0.2-0.6c0-0.2,0-0.4,0-0.6
			c0.1-0.2,0.2-0.4,0.3-0.5c0.1-0.2,0.3-0.3,0.5-0.4c0.2-0.1,0.4-0.1,0.6-0.1s0.4,0,0.6,0.1"/>
	</g>
	<g class="st7">
		<path class="st0" d="M66.3,468l-0.2-2.9l-36.8,2c0,0-1.7,0.7-1.5,1.9L66.3,468z"/>
	</g>
	<path class="st1" d="M47.1,457.8c0,0.2,0.9,0.2,1.9,0.8c0.9,0.6,1.4,1.3,1.6,1.2c0.2-0.1-0.1-1.1-1.3-1.7
		C48.2,457.5,47.1,457.7,47.1,457.8z"/>
	<path class="st1" d="M43.1,459.5c0,0.2,0.8,0.5,1.4,1.2c0.7,0.7,0.9,1.5,1,1.5s0.3-1-0.6-1.9C44.2,459.4,43.1,459.3,43.1,459.5z"/>
	<path class="st1" d="M40.9,464.1c0.2,0,0.4-0.9-0.1-1.8c-0.5-1-1.4-1.3-1.5-1.2c-0.1,0.2,0.5,0.7,0.9,1.4
		C40.7,463.4,40.8,464.1,40.9,464.1z"/>
	<path class="st1" d="M47.3,453.6c0.1,0.2,0.9-0.1,2-0.1c1.1,0,1.9,0.3,2,0.2c0.1-0.1-0.7-0.8-2-0.8
		C48.1,452.9,47.2,453.4,47.3,453.6z"/>
	<path class="st1" d="M48.1,449.2c0.6,0.1,1.3,0.1,1.9-0.1c0.7-0.1,1.4-0.3,2-0.6c0.4-0.2,0.7-0.4,1.1-0.6c0.2-0.1,0.4-0.3,0.6-0.4
		c0.1-0.1,0.2-0.3,0.2-0.5s0-0.3-0.1-0.5c-0.1-0.1-0.2-0.2-0.4-0.3c-0.1-0.1-0.3-0.1-0.5-0.1c-0.2,0-0.5,0-0.7,0.1
		c-0.4,0.1-0.8,0.2-1.2,0.4c-0.6,0.3-1.2,0.7-1.7,1.1c-0.9,0.8-1.2,1.5-1.1,1.5c0.1,0,0.5-0.5,1.4-1.2c0.5-0.4,1.1-0.7,1.7-1
		c0.4-0.1,0.7-0.3,1.1-0.3c0.4-0.1,0.7-0.1,0.9,0c0.1,0.1,0,0.1,0,0.2c-0.1,0.1-0.3,0.2-0.4,0.3c-0.3,0.2-0.7,0.4-1,0.6
		c-0.6,0.3-1.2,0.5-1.8,0.7C49.4,448.8,48.7,449,48.1,449.2z"/>
	<path class="st1" d="M48.3,449.5c0.3-0.5,0.5-1.1,0.5-1.8c0-0.7-0.1-1.4-0.3-2c-0.1-0.4-0.3-0.7-0.5-1.1c-0.1-0.2-0.3-0.4-0.5-0.6
		c-0.2-0.2-0.5-0.3-0.7-0.3c-0.2,0-0.3,0.1-0.5,0.2c-0.1,0.1-0.3,0.2-0.3,0.4c-0.1,0.2-0.2,0.4-0.2,0.7c-0.1,0.4-0.1,0.8,0,1.2
		c0.1,0.7,0.4,1.3,0.9,1.9c0.8,0.9,1.6,1.1,1.6,1.1c0-0.1-0.6-0.4-1.2-1.3c-0.3-0.5-0.6-1.1-0.7-1.7c-0.1-0.4-0.1-0.7,0-1.1
		c0-0.4,0.2-0.7,0.3-0.7c0.2,0,0.5,0.3,0.7,0.6c0.2,0.3,0.4,0.7,0.5,1c0.2,0.6,0.4,1.2,0.4,1.8C48.5,448.8,48.3,449.5,48.3,449.5z"
		/>
	<path class="st6" d="M94.8,441.3l3.7,29l38.1-4.7c-0.6-3.4-21.2-7.9-21.2-7.9l-1.5-18.7L94.8,441.3z"/>
	<g class="st7">
		<path class="st0" d="M103.4,457.5c-0.3,0.1-0.6,0.4-0.8,0.7c-0.2,0.3-0.2,0.7-0.1,1.1c0.2,0.3,0.4,0.6,0.8,0.8
			c0.3,0.1,0.7,0.2,1.1,0c0.4-0.1,0.7-0.4,0.8-0.8c0.2-0.4,0.2-0.8,0.1-1.1c-0.2-0.3-0.5-0.6-0.9-0.7
			C104.1,457.4,103.7,457.4,103.4,457.5"/>
	</g>
	<g class="st7">
		<path class="st0" d="M98.5,470.2l-0.3-2.9l36.6-3.4c0,0,1.7,0.4,1.7,1.6L98.5,470.2z"/>
	</g>
	<path class="st1" d="M116,457.3c0,0.2-0.9,0.4-1.8,1.1c-0.9,0.7-1.2,1.5-1.4,1.4c-0.2,0,0-1.1,1-1.9
		C114.8,457.1,116,457.2,116,457.3z"/>
	<path class="st1" d="M120.2,458.4c0.1,0.2-0.7,0.6-1.2,1.4s-0.6,1.6-0.8,1.6c-0.2,0-0.4-1,0.3-2
		C119.1,458.4,120.2,458.3,120.2,458.4z"/>
	<path class="st1" d="M123,462.6c-0.2,0.1-0.5-0.8-0.2-1.8c0.4-1,1.2-1.5,1.3-1.4c0.1,0.1-0.4,0.7-0.7,1.6
		C123.2,461.9,123.2,462.6,123,462.6z"/>
	<path class="st1" d="M115.1,453.1c-0.1,0.2-0.9,0-2,0.2c-1.1,0.2-1.8,0.6-1.9,0.5c-0.1-0.1,0.6-0.9,1.8-1.1
		C114.3,452.5,115.2,453,115.1,453.1z"/>
	<path class="st1" d="M113.7,449c-0.6,0.2-1.3,0.3-1.9,0.2c-0.7,0-1.4-0.1-2.1-0.3c-0.4-0.1-0.8-0.2-1.2-0.4
		c-0.2-0.1-0.4-0.2-0.6-0.4c-0.1-0.1-0.2-0.3-0.3-0.4c0-0.2,0-0.3,0.1-0.5c0.1-0.1,0.2-0.3,0.3-0.3c0.1-0.1,0.3-0.1,0.4-0.2
		c0.2,0,0.5,0,0.7,0c0.4,0,0.8,0.1,1.2,0.2c0.7,0.2,1.3,0.5,1.9,0.9c1,0.7,1.4,1.3,1.3,1.3c-0.1,0-0.6-0.4-1.5-1
		c-0.9-0.5-1.9-0.8-2.9-0.9c-0.4-0.1-0.8,0-0.8,0.2c-0.1,0.2,0,0.1,0.1,0.2c0.1,0.1,0.3,0.2,0.5,0.3c0.3,0.2,0.7,0.3,1.1,0.4
		c0.6,0.2,1.3,0.4,1.9,0.4C112.5,448.8,113.1,448.8,113.7,449z"/>
	<path class="st1" d="M113.5,449.2c-0.4-0.5-0.7-1.1-0.7-1.7c-0.1-0.7-0.1-1.3,0-2c0.1-0.4,0.2-0.8,0.4-1.2c0.1-0.3,0.2-0.5,0.4-0.7
		s0.4-0.3,0.7-0.4c0.2,0,0.3,0,0.5,0.1c0.2,0.1,0.3,0.2,0.4,0.3c0.1,0.2,0.2,0.4,0.3,0.6c0.1,0.4,0.2,0.8,0.2,1.2
		c0,0.7-0.2,1.4-0.6,2c-0.6,1-1.4,1.3-1.4,1.3c0-0.1,0.5-0.5,1-1.5c0.3-0.6,0.4-1.2,0.4-1.8c0-0.3-0.1-0.7-0.2-1
		c-0.1-0.4-0.3-0.7-0.4-0.6c-0.2,0.1-0.5,0.4-0.6,0.7c-0.1,0.3-0.3,0.7-0.4,1c-0.1,0.6-0.2,1.2-0.2,1.8
		C113.3,448.6,113.6,449.2,113.5,449.2z"/>
	<path class="st1" d="M35.9,284l59.8,1.9c0,0,14.1,94.1,13.7,100.7l8.7,68.2l-25.3,0.9c0,0-4-22.1-6.8-37.3
		c-1.8-10-5.2-24.9-6.1-33.3c-0.9-8.4-15.7-67.2-15.7-67.2s1.1,68.2,1.1,71s2.9,66.7,2.9,66.7H43.1c-1.3-11.5-4.4-57.7-5-67
		c-1.2-16.8-5-64.4-5.5-76.6C32.1,299.9,35.9,284,35.9,284z"/>
	<path class="st6" d="M39.9,284.4c0.3-1.4,0.3-2.9,0-4.3C39.6,281.6,39.6,283,39.9,284.4z"/>
	<path class="st6" d="M37.4,285.6c0.5-1.8,0.3-3.7-0.5-5.4c0,0.9,0.1,1.8,0.3,2.7C37.2,283.8,37.2,284.7,37.4,285.6z"/>
	<path class="st6" d="M59.7,281.1c0.5,0.1,0.9,0.3,1.3,0.7c0.2,0.2,0.3,0.4,0.4,0.7c0.1,0.2,0.1,0.5,0,0.8c-0.1,0.3-0.2,0.5-0.5,0.8
		s-0.5,0.3-0.8,0.4c-0.3,0.1-0.6,0-0.9-0.1c-0.3-0.1-0.5-0.3-0.7-0.5c-0.1-0.2-0.2-0.5-0.2-0.7c0-0.3,0-0.5,0.1-0.7
		c0.2-0.5,0.5-0.9,0.9-1.1c0,0-0.2,0-0.4,0.1c-0.4,0.2-0.6,0.5-0.8,0.9c-0.1,0.3-0.2,0.6-0.2,0.9s0.1,0.6,0.2,0.9
		c0.2,0.3,0.5,0.6,0.9,0.7c0.4,0.1,0.8,0.2,1.1,0.1c0.4-0.1,0.7-0.3,1-0.5c0.3-0.3,0.5-0.6,0.6-1c0-0.3,0-0.6-0.1-0.9
		c-0.1-0.3-0.3-0.6-0.5-0.8c-0.3-0.3-0.7-0.5-1.1-0.6C59.9,281,59.7,281.1,59.7,281.1z"/>
	<path class="st6" d="M87.3,384.9c2.2-0.7,4.3-1.5,6.4-2.4c2.1-0.8,4.2-1.7,6.2-2.8c-2.2,0.7-4.3,1.5-6.4,2.4
		C91.4,382.9,89.3,383.9,87.3,384.9z"/>
	<path class="st1" d="M90.5,142.5c-0.2-3.5-2.3-5.6-5.3-7.4c-1.5-0.9-3.2-1.4-5-1.5c-1.7-0.1-3.5,0.3-5.1,1c-2.1,1-4,2.7-6.3,3
		c-3.8,0.5-7.4-3-11.1-2.2c-1.1,0.3-2.1,0.9-2.8,1.8c-0.7,0.9-1,2-1,3.2c0,1.1,0.5,2.2,1.2,3.1c0.8,0.9,1.8,1.4,2.9,1.6
		c-2.5,0.4-3.9,3.5-3,5.9c0.9,2.3,3.5,3.7,6,3.8c2.5-0.1,5-0.9,7.1-2.2c2.2-1.3,4.2-2.8,6.5-3.9c2.2-1.2,4.8-1.6,7.3-1.1
		c3.3,0.9,5.6,4,6.5,7.3c0.9,3.3,0.5,6.8,0,10.2c-0.5,3.4-1.2,6.8-0.8,10.2c0,0.2,0,0.4,0.1,0.6c0.1,0.2,0.2,0.3,0.4,0.4
		c0.5,0.3,1.1-0.2,1.5-0.6c4.2-5,7.4-10.8,9.4-17.1c1.2-3.6,1.8-7.1,0.4-10.7C98,144.4,93.4,141.1,90.5,142.5"/>
	<path class="st8" d="M93.7,159.3l-5.6,34.4c-1,6.4-5.2,12.6-15.3,10.5c-8.6-2.5-8-8.7-6.8-16.3c0,0-9.5-2.5-8.6-12.1
		c0.4-4.7,2-14.2,3.6-22.8c0.8-4.4,3.3-8.4,6.9-11.1c3.6-2.7,8.1-4,12.6-3.5l0.9,0.1C91.4,140.2,95.6,149.4,93.7,159.3z"/>
	<path class="st9" d="M66,187.9c4.4,0.4,8.9-0.4,12.9-2.4c0,0-3.8,7.1-13.3,5.3L66,187.9z"/>
	<path class="st1" d="M62.9,161.5c0,0.4,0.1,0.7,0.3,1c0.2,0.3,0.5,0.5,0.9,0.5c0.2,0,0.4,0,0.5,0c0.2,0,0.3-0.1,0.5-0.2
		c0.1-0.1,0.3-0.2,0.4-0.4c0.1-0.1,0.2-0.3,0.2-0.5c0-0.4-0.1-0.7-0.3-1c-0.2-0.3-0.5-0.5-0.9-0.5c-0.2,0-0.4,0-0.5,0
		s-0.3,0.1-0.5,0.2c-0.1,0.1-0.3,0.2-0.4,0.4C63,161.2,62.9,161.3,62.9,161.5z"/>
	<path class="st1" d="M62.6,158c0.2,0.2,1.3-0.5,2.7-0.3c1.5,0.2,2.5,1,2.7,0.8c0.2-0.2-0.1-0.4-0.5-0.8c-0.6-0.5-1.3-0.8-2.1-0.9
		c-0.8-0.1-1.5,0.1-2.2,0.5C62.7,157.6,62.5,157.9,62.6,158z"/>
	<path class="st1" d="M76.4,163.6c0,0.4,0.1,0.7,0.3,1c0.2,0.3,0.5,0.5,0.9,0.5c0.2,0,0.4,0,0.5,0c0.2,0,0.3-0.1,0.5-0.2
		c0.1-0.1,0.3-0.2,0.4-0.4c0.1-0.2,0.2-0.3,0.2-0.5c0-0.4-0.1-0.7-0.3-1c-0.2-0.3-0.5-0.5-0.9-0.5c-0.2,0-0.4,0-0.5,0
		c-0.2,0-0.3,0.1-0.5,0.2c-0.1,0.1-0.3,0.2-0.4,0.4C76.4,163.3,76.4,163.5,76.4,163.6z"/>
	<path class="st1" d="M76.8,159.8c0.2,0.2,1.3-0.5,2.7-0.3c1.5,0.1,2.5,1,2.7,0.8c0.2-0.2-0.1-0.4-0.5-0.8c-0.6-0.5-1.3-0.8-2.1-0.9
		c-0.8-0.1-1.5,0.1-2.2,0.5C76.9,159.4,76.7,159.7,76.8,159.8z"/>
	<path class="st1" d="M70.6,170.2c-0.8-0.3-1.5-0.6-2.4-0.7c-0.4-0.1-0.7-0.2-0.8-0.5c0-0.4,0.1-0.8,0.4-1.1
		c0.5-0.9,0.9-1.8,1.4-2.8c2-3.9,3.4-7.2,3.3-7.3c-1.5,2.2-2.7,4.6-3.8,7l-1.4,2.8c-0.3,0.4-0.4,0.9-0.3,1.5c0,0.1,0.1,0.3,0.2,0.4
		c0.1,0.1,0.2,0.2,0.4,0.2c0.2,0.1,0.4,0.1,0.6,0.1C69,170.1,69.8,170.2,70.6,170.2z"/>
	<path class="st1" d="M77.3,153.9c0.1,0.4,1.6,0.4,3.3,0.8c1.7,0.4,3.1,1,3.3,0.7c0.1-0.2-0.1-0.6-0.6-1c-0.7-0.5-1.5-0.9-2.4-1.1
		c-0.9-0.2-1.8-0.2-2.6,0C77.6,153.4,77.3,153.7,77.3,153.9z"/>
	<path class="st1" d="M63.6,153.8c0.2,0.4,1.3,0.1,2.5,0.2c1.2,0.1,2.2,0.5,2.5,0.1c0.1-0.2,0-0.5-0.4-0.9c-0.6-0.4-1.3-0.7-2-0.7
		c-0.7,0-1.4,0.1-2,0.5C63.6,153.3,63.5,153.6,63.6,153.8z"/>
	<path class="st8" d="M92.2,166.4c0.2-0.1,6.8-1.3,5.9,5.3c-0.9,6.6-7.3,4.3-7.3,4.1C90.9,175.6,92.2,166.4,92.2,166.4z"/>
	<path class="st9" d="M93.2,173.6c0,0,0.1,0.1,0.3,0.2c0.3,0.1,0.6,0.2,0.9,0.1c0.5-0.2,0.9-0.5,1.1-1c0.3-0.4,0.5-0.9,0.5-1.4
		c0.1-0.6,0.1-1.1-0.1-1.7c0-0.2-0.1-0.4-0.2-0.6c-0.1-0.2-0.3-0.3-0.5-0.4c-0.1-0.1-0.3-0.1-0.4,0c-0.1,0-0.2,0.1-0.3,0.2
		c-0.1,0.2-0.1,0.3-0.1,0.3s-0.1-0.1,0-0.4c0.1-0.2,0.2-0.3,0.3-0.4c0.2-0.1,0.4-0.1,0.7-0.1c0.3,0.1,0.5,0.3,0.7,0.5
		c0.2,0.2,0.3,0.4,0.4,0.7c0.2,0.6,0.3,1.3,0.2,1.9c0,0.6-0.3,1.1-0.6,1.6c-0.4,0.5-0.8,0.8-1.4,1c-0.2,0-0.4,0-0.5,0
		c-0.2-0.1-0.3-0.1-0.5-0.3C93.2,173.7,93.2,173.6,93.2,173.6z"/>
	<path class="st1" d="M61.8,144.2c1.1-1.8,2.7-3.2,4.5-4.2c3.8-2.4,8.3-3.5,12.9-3.2c4.5,0.4,8.8,2.5,11.8,5.9
		c2.3,2.8,3.7,6.2,4.1,9.8c0.4,3.6,0,7.2-1,10.7c-0.3,1.6-1.1,3-2.2,4.1c-0.8,0.6-2,1-2.7,0.3c-0.4-0.4-0.6-1-0.6-1.6
		c-0.8-5.2-1.5-10.8,0.9-15.5c-1-1.8-2.4-3.4-4.1-4.6c-0.8-0.6-1.8-1.1-2.8-1.3c-1-0.2-2.1-0.3-3.1-0.1c-3,0.6-5.1,3.3-7.7,5
		c-1.8,1.2-3.9,2-6.1,2.3c-2.2,0.3-4.4,0-6.5-0.8L61.8,144.2z"/>
	<path class="st9" d="M69.3,174.2c0.1,0.6,0.2,1.2,0.5,1.8c0.1,0.3,0.3,0.5,0.5,0.8c0.2,0.2,0.5,0.4,0.8,0.5c0.3,0.1,0.7,0.1,1,0
		c0.3-0.1,0.6-0.3,0.8-0.5c0.5-0.5,0.8-1.1,0.8-1.8c0.1-0.6,0-1.4-0.6-1.6c-0.2-0.1-0.5-0.1-0.7,0l-3.4,0.6"/>
	<path class="st1" d="M70,177c0.5,0.1,1.1,0.2,1.7,0.1c0.6-0.1,1.1-0.4,1.5-0.9c0.2-0.3,0.4-0.6,0.4-1c0.1-0.3,0.1-0.7,0-1.1
		c0-0.2-0.1-0.3-0.2-0.5c-0.1-0.2-0.1-0.2-0.2-0.2c-0.2,0-0.4,0.1-0.5,0.1l-0.6,0.1l-1.9,0.3c-0.6,0.1-1.2,0.2-1.8,0.2
		c0.5-0.3,1.1-0.5,1.7-0.5c0.5-0.1,1.2-0.3,1.9-0.4l0.5-0.1c0.2,0,0.4-0.1,0.6-0.1c0.2,0,0.3,0,0.5,0.1c0.1,0.1,0.2,0.2,0.3,0.3
		c0.1,0.2,0.2,0.4,0.2,0.7c0.1,0.4,0.1,0.9,0,1.3c-0.1,0.4-0.3,0.8-0.6,1.2c-0.5,0.5-1.1,0.9-1.8,0.9c-0.5,0.1-0.9,0-1.3-0.2
		C70.1,177.1,70,177,70,177z"/>
	<path class="st8" d="M45.6,160l-1.6-0.4l-24.2,23.5l-19.6,2.4c0,0,0.2-5.9,7.6-13.5c6.6-6.8,22-14.8,27.2-18.9
		c0.7-0.6,1.4-1,2.3-1.3L45.6,160z"/>
	<path class="st8" d="M45.6,148.8l2.5-0.7l5.8-2.8l6.6,2.5c0,0-0.2,2.3-1.9,1.6l7,2.3c0,0-0.6,1.7-0.9,1.8c-0.3,0.1,4.1,0.5,4.1,0.5
		s0,2.2-4.2,2.2c-4.2,0-5.8-0.8-5.8-0.8l-3.3,0.9l0.1,2l4.6-0.1l-0.2,2.5c-1.9,0.4-3.9,0.7-5.9,0.9c0,0-7,0.1-8.9-0.8
		c-1.9-0.9-4.3-2.2-4.3-2.2l-3.6-6.9L45.6,148.8z"/>
	<path class="st9" d="M51.9,150c0,0.1,0.4-0.1,1-0.4c0.8-0.4,1.6-0.8,2.4-1.3h-0.3l0.3,0.2c0.8,0.5,1.8,0.9,2.7,1
		c0.7,0.1,1.2,0,1.2,0c-1.3-0.3-2.5-0.8-3.7-1.4l-0.3-0.2l-0.2-0.1l-0.2,0.1c-0.8,0.6-1.7,1-2.2,1.4C52.1,149.7,51.8,150,51.9,150z"
		/>
	<path class="st9" d="M54,153.5c0,0,0.5,0.2,1.1-0.1c0.7-0.3,1.4-1,2.4-1.4h-0.2c0.4,0.3,0.9,0.5,1.3,0.8c1.2,0.6,2.5,0.9,3.8,0.9
		c0.5,0.1,1.1,0,1.6-0.2c-1.8-0.1-3.5-0.6-5.1-1.2c-0.4-0.2-0.9-0.4-1.3-0.7l-0.1-0.1h-0.1c-1.1,0.6-1.7,1.3-2.3,1.6
		C54.4,153.4,54,153.5,54,153.5z"/>
	<path class="st9" d="M47.8,155.7c0,0.1,0.5-0.1,1.3-0.1c1,0,2,0.3,2.9,0.9c0.6,0.4,1.1,0.8,1.4,1.4l0.1,0.1h0.1
		c0.8,0.2,1.6,0.3,2.4,0.3c-0.7-0.4-1.5-0.6-2.3-0.7l0.2,0.1c-0.4-0.7-0.9-1.2-1.5-1.6c-0.9-0.6-2.1-0.9-3.2-0.8
		C48.2,155.4,47.8,155.7,47.8,155.7z"/>
	<path class="st9" d="M40.9,158.7c0.1,0.1,0.1,0.1,0.2,0.1l0.6,0.4l2.4,1.3c0.6,0.4,1.2,0.6,1.8,0.8c0.8,0.2,1.6,0.3,2.4,0.4
		c1.7,0.2,3.7,0.2,5.8,0.2l2.6-0.3c1-0.1,1.9-0.2,2.9-0.5h0.1V161c0.1-0.9,0.3-1.8,0.5-2.8l0.1-0.3H60l-4.3,0.2l0.3,0.2
		c0-0.6-0.1-1.3-0.1-2l-0.2,0.3l3.4-0.9h-0.2c1.6,0.5,3.3,0.8,5,0.8c0.9,0.1,1.8,0,2.6-0.1c0.5-0.1,0.9-0.2,1.3-0.5
		c0.4-0.2,0.8-0.6,1-1c0.2-0.3,0.2-0.6,0.3-0.9v-0.2h-0.3c-1-0.1-2.1-0.2-3.1-0.3l-0.7-0.1h-0.2v0.1c0,0,0.1,0.1,0.1,0.1
		c0,0,0,0.1,0,0.1c0,0.1-0.2,0.2-0.1,0.2c0.1,0,0.1-0.1,0.2-0.1c0.1-0.1,0.2-0.2,0.3-0.4c0.2-0.5,0.4-0.9,0.6-1.4l0.1-0.3l-0.3-0.1
		l-7-2.3l-0.2,0.5c0.3,0.1,0.6,0.1,0.9,0.1c0.3-0.1,0.6-0.2,0.8-0.5c0.3-0.4,0.5-1,0.6-1.5v-0.2l-0.2-0.1l-6.7-2.4h-0.1h-0.1
		l-5.8,2.8l-2.4,0.7l-2.1,0.8l-3.4,1.2l-2.1,0.8c-0.3,0.1-0.5,0.2-0.7,0.3c0.3-0.1,0.5-0.1,0.8-0.2l2.1-0.7l3.4-1.1l2.1-0.7l2.4-0.7
		l5.9-2.7h-0.2l6.6,2.5l-0.2-0.2c0,0.4-0.2,0.9-0.5,1.2c-0.1,0.1-0.3,0.2-0.5,0.3c-0.2,0-0.4,0-0.6-0.1l-0.2,0.5l7,2.3l-0.2-0.3
		c-0.2,0.5-0.3,0.9-0.6,1.3c0,0.1-0.1,0.2-0.2,0.3c0,0,0,0.1,0.1,0.1c-0.1-0.3,0-0.1-0.1-0.1h-0.1c0,0-0.1,0.1-0.1,0.1
		c0,0,0,0.1,0,0.1c0,0,0,0.1,0.1,0.1c0.1,0.1,0.1,0,0.1,0.1h0.1h0.2l0.8,0.1c1,0.1,2,0.2,3.1,0.3l-0.2-0.3c0,0.2-0.1,0.4-0.2,0.6
		c-0.2,0.3-0.5,0.6-0.9,0.8c-0.3,0.2-0.7,0.3-1.1,0.4c-0.8,0.1-1.7,0.2-2.5,0.1c-1.6,0-3.3-0.2-4.8-0.7h-0.1h-0.1l-3.3,0.9h-0.2v0.2
		c0,0.7,0.1,1.4,0.1,2v0.2h0.2l4.3-0.2l-0.2-0.3c-0.2,1-0.3,1.9-0.4,2.8l0.1-0.2c-0.9,0.2-1.8,0.4-2.7,0.5l-2.6,0.3
		c-2.1,0-4.1,0-5.8-0.2c-0.8-0.1-1.6-0.2-2.3-0.3c-0.6-0.2-1.2-0.4-1.8-0.8l-2.5-1.2L40.9,158.7C41,158.7,40.9,158.7,40.9,158.7z"/>
	<path class="st9" d="M49.3,151.1c0.6,1.1,1.5,2,2.6,2.6c1,0.8,2.1,1.3,3.3,1.6c0.1-0.1-1.4-0.9-3-2C50.6,152.1,49.4,151,49.3,151.1
		z"/>
	<path class="st10" d="M0.4,184.8l19.4-1.6l22.9,8.7l5,3.1l-7.1,24.5c0,0-35.9-21.2-37.4-23c-1.4-1.6-2.3-3.5-2.8-5.5
		C-0.1,188.9-0.1,186.8,0.4,184.8z"/>
	<path class="st10" d="M104.2,202.8l6.7,4.1l-15.4,60.8l2.8,35c-4,3.5-14,6.5-33.1,5.4c-19.1-1.1-31.8-9.4-31.8-9.4l1.8-36l4.3-40.7
		l4.9-27.8l14.7,1.1l5.7-3.4l2.6,1.3l3.3,9.1l8.6-6.2l10-4.8l3.7,6.8L104.2,202.8z"/>
	<path class="st1" d="M44.3,201.3c-0.2,0.4-0.4,0.9-0.5,1.3c-0.3,0.9-0.7,2.2-1.2,3.8c-1.2,4.2-2.2,8.4-3,12.7
		c-0.8,4.3-1.3,8.6-1.6,12.9c-0.1,1.7-0.2,3-0.2,3.9c-0.1,0.5-0.1,1,0,1.5c0.1-0.5,0.2-1,0.2-1.4c0.1-1,0.2-2.3,0.3-3.9
		c0.3-3.3,0.8-7.9,1.7-12.9c0.9-5,2-9.5,2.8-12.7c0.4-1.5,0.8-2.8,1-3.8C44.1,202.2,44.2,201.8,44.3,201.3z"/>
	<path class="st1" d="M73.4,201.8c0.5-0.1,1-0.3,1.4-0.5c1.2-0.6,2.2-1.5,3-2.6l-0.4-0.1c0.2,3,0.8,5.9,1.8,8.8l0.1,0.3l0.3-0.2
		l0.7-0.5c3.5-2.4,6.6-4.6,8.8-6.2l2.6-1.9c0.3-0.2,0.6-0.5,0.9-0.8c-0.4,0.2-0.7,0.4-1,0.6l-2.7,1.8c-2.3,1.5-5.4,3.7-8.9,6
		l-0.7,0.5l0.4,0.1c-1-2.8-1.6-5.7-1.9-8.6V198l-0.3,0.4c-0.7,1.1-1.7,2-2.8,2.6C73.8,201.5,73.3,201.7,73.4,201.8z"/>
	<path class="st1" d="M59.6,196.4c1,1.3,2.1,2.6,3.3,3.7l0.2,0.2l0.2-0.2c0.7-0.8,1.4-1.5,2.2-2.2c0.4-0.4,0.8-0.7,1.2-1l0.6-0.5
		c0,0,0.1,0,0.1,0c0,0,0,0,0.1,0.2l0.9,2.4c0.3,0.8,0.6,1.5,1,2.2c-0.1-0.8-0.3-1.6-0.6-2.3c-0.3-0.8-0.5-1.6-0.8-2.4
		c0-0.1-0.1-0.2-0.1-0.3c-0.1-0.1-0.1-0.1-0.2-0.2c-0.1,0-0.2,0-0.3,0c-0.1,0-0.2,0.1-0.3,0.1l-0.6,0.5c-0.4,0.3-0.9,0.7-1.3,1
		c-0.8,0.7-1.5,1.5-2.2,2.3h0.4C62.1,198.5,60.9,197.4,59.6,196.4z"/>
	<path class="st6" d="M63.6,305.5c-6.4-1.2-13.1-0.9-19.3,1c-6.3,1.8-12,5.1-16.8,9.6c-4.8,4.5-8.4,10-10.6,16.2
		c-2.2,6.2-2.9,12.8-2.1,19.2c0.8,6.5,3.2,12.7,6.8,18.1c3.7,5.4,8.6,9.9,14.3,13.1c5.7,3.2,12.1,4.9,18.7,5.2
		c6.5,0.2,13-1.1,19-3.8c8-3.7,14.6-9.9,18.8-17.6c4.3-7.7,6-16.6,4.9-25.3c-1.1-8.7-4.9-16.9-11-23.3
		C80.1,311.4,72.2,307.1,63.6,305.5L63.6,305.5z M48.8,384.4c-9.1-1.7-17.2-6.6-23-13.8s-8.8-16.2-8.5-25.5
		c0.3-9.2,3.9-18.1,10.1-24.9c6.2-6.8,14.7-11.2,23.8-12.4c9.2-1.1,18.4,1,26.1,6.1c7.7,5.1,13.3,12.8,15.9,21.6
		c2.6,8.9,1.8,18.4-2,26.8c-3.8,8.4-10.5,15.2-18.9,19.1C65,384.9,56.7,385.9,48.8,384.4z"/>
	<path class="st6" d="M56,389.9c10.9,0,21.5-4.1,29.6-11.5c8.1-7.4,13.1-17.5,14.1-28.4c1-10.9-2.2-21.8-8.8-30.5
		c-6.7-8.7-16.3-14.6-27.1-16.5c-10.8-1.9-21.9,0.3-31.1,6.1c-9.2,5.9-16,15-18.8,25.6c-2.9,10.6-1.6,21.8,3.4,31.5
		c5,9.7,13.5,17.2,23.8,21C45.8,389,50.9,389.9,56,389.9z M55.9,309.5c5.1,0,10.2,1.1,14.9,3.1c4.7,2.1,8.9,5.1,12.3,8.9
		s6.1,8.2,7.7,13.1c1.6,4.9,2.2,10,1.8,15.1c-0.5,5.1-2,10-4.5,14.5c-2.5,4.5-5.9,8.4-10,11.5c-4.1,3.1-8.8,5.3-13.8,6.4
		c-5,1.2-10.2,1.3-15.2,0.3c-5.7-1.1-11.1-3.5-15.8-7.1c-4.6-3.6-8.3-8.2-10.8-13.5c-2.6-5.6-3.8-11.8-3.3-17.9
		c0.4-6.2,2.4-12.1,5.7-17.3s7.9-9.5,13.3-12.5C43.6,311.1,49.7,309.5,55.9,309.5z"/>
	<path class="st6" d="M157.1,305.7l-0.4-0.9c-0.8-1.9-2.5-3.1-3.9-2.5L92.1,327c-0.3,0.1-0.4,0.6-0.2,1l2.6,6.4
		c0.2,0.4,0.6,0.7,0.9,0.6l60.8-24.8C157.4,309.6,157.8,307.6,157.1,305.7z"/>
	<path class="st8" d="M100.3,235.7l7.3,24.2l-3.7,49.3l10.8,1.4c0,0,12.3-41.9,11.1-49.5c-1.2-7.6-6.3-29.7-6.3-29.7L100.3,235.7z"
		/>
	<path class="st8" d="M104,308.8l-5,8.6l-3.1,8l4.7-1.8c0,0,2,9.7,2.8,9.9c0.8,0.2,3.1-0.5,2.8-2.4c0.3,0.3,0.7,0.6,1.2,0.7
		c0.4,0.1,0.9,0.2,1.4,0.1c1.4-0.3,1.8-1.2,1.6-3c0,0,1.7,1.3,2.6,0.5c0.3-0.3,0.5-0.7,0.7-1.1c0.2-0.4,0.2-0.8,0.2-1.2
		c0,0,2.2,0.2,2.5-0.9c0.3-1.8,0.4-3.7,0.1-5.5c-0.3-1.2-1.3-6.2-1.3-6.2l-0.5-4L104,308.8z"/>
	<path class="st9" d="M105.2,325.6c0.4,0.9,0.6,1.8,0.8,2.8c0.2,0.9,0.4,1.9,0.3,2.8c-0.4-0.9-0.6-1.8-0.8-2.8
		C105.2,327.5,105.1,326.5,105.2,325.6z"/>
	<path class="st9" d="M109.6,324.4c0.4,0.7,0.6,1.4,0.7,2.2c0.2,0.7,0.3,1.5,0.2,2.3c-0.4-0.7-0.6-1.4-0.7-2.2
		C109.6,326,109.5,325.2,109.6,324.4z"/>
	<path class="st9" d="M113.2,323.4c0.2,0.6,0.3,1.2,0.3,1.9c0.2,1,0.4,1.9,0.3,1.9c-0.4-0.5-0.7-1.2-0.8-1.8
		C113,324.7,113,324,113.2,323.4z"/>
	<path class="st9" d="M100.2,320.8c0.4,0.9,0.7,1.8,0.8,2.7c0.3,0.9,0.5,1.8,0.5,2.8c-0.5-0.8-0.8-1.7-1-2.6
		C100.3,322.7,100.1,321.7,100.2,320.8z"/>
	<path class="st10" d="M126.4,277.3c0-0.8,3.4-12.3,2.3-18.3c-1-5.9-13.3-46.2-14.9-49c-1.3-1.9-3.1-3.5-5.2-4.4
		c-2.4,1.3-4.4,3-6.1,5.1c-1.7,2.1-2.9,4.5-3.6,7.1c-2.5,8.8-2.5,19.9-2.5,19.9l9.8,24.4l-1.2,13.9L126.4,277.3z"/>
	<path class="st1" d="M97.1,236.9c0.1,0-0.1-1.8,0-4.7c0.1-1.7,0.2-3.4,0.5-5c0.6-4.1,1.9-8.1,3.7-11.8c0.7-1.5,1.6-3,2.5-4.4
		c1.6-2.4,2.8-3.8,2.7-3.8c-0.3,0.3-0.6,0.6-0.9,0.9c-0.8,0.9-1.4,1.8-2.1,2.7c-1,1.4-1.9,2.9-2.6,4.4c-1.9,3.7-3.2,7.8-3.8,11.9
		c-0.2,1.7-0.4,3.4-0.4,5.1c0,1.1,0,2.3,0.2,3.4C96.9,236.1,97,236.5,97.1,236.9z"/>
	<path class="st1" d="M97.7,242c0.2,1,0.6,2,1,3c0.7,1.9,1.8,4.4,3,7.1l3.2,7c0.4,1,0.8,2,1.4,2.9c-0.2-1-0.6-2-1-3
		c-0.7-1.9-1.8-4.4-3-7.1l-3.2-7C98.7,243.9,98.2,242.9,97.7,242z"/>
	<path class="st1" d="M105.7,263.1c2.2-1.2,4.4-2.1,6.7-2.9c2.4-0.6,4.8-1,7.2-1.3c-0.7-0.2-1.5-0.2-2.2-0.1
		c-1.8,0.1-3.5,0.4-5.2,0.9c-1.7,0.5-3.3,1.2-4.8,2.1C106.8,262.1,106.2,262.5,105.7,263.1z"/>
	<path class="st0" d="M41.6,332.2c-0.1,0.1,7.8,7,17.7,15.5c9.9,8.4,17.9,15.2,18,15.1c0.1-0.1-7.8-7-17.7-15.5
		C49.8,338.8,41.7,332.1,41.6,332.2z"/>
	<path class="st0" d="M31.5,332.2c-0.1,0.1,6.6,6,14.9,13.1s15.1,12.9,15.2,12.7c0.1-0.1-6.6-6-14.9-13.1
		C38.4,337.8,31.6,332.1,31.5,332.2z"/>
	<path class="st1" d="M16.5,346.3c0,0,0-0.2,0.1-0.6c0.1-0.4,0.1-1.1,0.1-1.9c0-0.4,0-0.9,0.1-1.4c0.1-0.5,0.2-1.1,0.3-1.7
		c0.1-0.6,0.2-1.2,0.3-1.9c0.1-0.7,0.3-1.4,0.5-2.1c0.9-3.7,2.4-7.2,4.4-10.5c2.6-4.3,6-8.1,10-11.1l1.7-1.3
		c0.6-0.4,1.2-0.7,1.8-1.1c0.6-0.4,1.2-0.8,1.9-1.1l2-1l1-0.5l1.1-0.4l2.2-0.8c0.8-0.3,1.5-0.4,2.3-0.6c0.8-0.2,1.6-0.4,2.4-0.5
		c1.6-0.3,3.3-0.5,5-0.6c0.8,0,1.7-0.1,2.6-0.1l2.6,0.1c0.4,0,0.9,0,1.3,0.1l1.3,0.2c0.9,0.2,1.8,0.3,2.6,0.4
		c1.8,0.4,3.5,0.9,5.2,1.5c1.8,0.6,3.5,1.4,5.1,2.2c0.8,0.5,1.6,1,2.4,1.5c0.4,0.3,0.8,0.5,1.2,0.8l1.2,0.9c3.2,2.3,6,5.1,8.3,8.3
		l0.9,1.2l0.8,1.3l0.8,1.3c0.3,0.4,0.5,0.9,0.7,1.3L92,331c0.4,1,0.7,1.9,1.1,2.9c2.7,8,2.7,16.7,0,24.7c-0.4,1-0.7,1.9-1.1,2.9
		c-0.4,1-0.9,1.8-1.3,2.8l-0.3,0.7l-0.4,0.7l-0.8,1.3l-0.8,1.3l-0.9,1.2c-1.2,1.6-2.5,3.1-3.8,4.5c-1.4,1.4-2.9,2.6-4.4,3.8
		l-1.2,0.9c-0.4,0.3-0.8,0.5-1.2,0.8c-0.8,0.5-1.6,1-2.4,1.5c-1.7,0.9-3.4,1.6-5.1,2.2c-1.7,0.6-3.5,1.1-5.2,1.5
		c-0.9,0.2-1.8,0.3-2.6,0.4l-1.3,0.2c-0.4,0.1-0.9,0.1-1.3,0.1l-2.6,0.1c-0.9,0-1.7-0.1-2.6-0.1c-1.7-0.1-3.3-0.3-5-0.6
		c-0.8-0.1-1.6-0.3-2.4-0.5c-0.8-0.2-1.6-0.4-2.3-0.6l-2.2-0.8l-1.1-0.4l-1-0.5l-2-1c-0.7-0.3-1.3-0.8-1.9-1.1
		c-0.6-0.4-1.2-0.7-1.8-1.1l-1.7-1.3c-4-3-7.4-6.8-10-11.1c-2-3.2-3.5-6.7-4.4-10.4c-0.2-0.8-0.4-1.5-0.5-2.1
		c-0.1-0.7-0.2-1.3-0.3-1.9c-0.1-0.6-0.2-1.1-0.3-1.6c-0.1-0.5-0.1-1-0.1-1.4c-0.1-0.8-0.1-1.4-0.1-1.9
		C16.5,346.5,16.5,346.3,16.5,346.3s0,0.2,0,0.6c0,0.4,0,1.1,0.1,1.9c0,0.4,0,0.9,0.1,1.4c0,0.5,0.1,1.1,0.2,1.7l0.3,1.9
		c0.1,0.7,0.3,1.5,0.5,2.2c0.9,3.7,2.3,7.3,4.3,10.6c2.6,4.4,6,8.2,10,11.3l1.7,1.3c0.6,0.4,1.2,0.8,1.9,1.1
		c0.6,0.4,1.2,0.8,1.9,1.1l2.1,1l1,0.5l1.1,0.4l2.2,0.8c0.8,0.3,1.5,0.4,2.3,0.6c0.8,0.2,1.6,0.4,2.4,0.6c1.7,0.3,3.3,0.5,5,0.6
		c0.9,0,1.7,0.1,2.6,0.1l2.6-0.1c0.4,0,0.9,0,1.3-0.1l1.3-0.2c0.9-0.1,1.8-0.3,2.7-0.4c1.8-0.4,3.6-0.9,5.3-1.5
		c1.8-0.6,3.5-1.4,5.2-2.3c0.8-0.5,1.6-1,2.5-1.5c0.4-0.3,0.8-0.5,1.2-0.8l1.1-0.9c1.6-1.2,3.1-2.4,4.5-3.8c1.4-1.4,2.7-3,3.9-4.6
		l0.9-1.2l0.8-1.3l0.8-1.3l0.4-0.7l0.3-0.7l1.4-2.8l1.1-2.9c2.7-8.1,2.7-16.9,0-25.1l-1.1-2.9c-0.5-0.9-0.9-1.9-1.3-2.8
		c-0.2-0.5-0.5-0.9-0.7-1.4l-0.8-1.3l-0.8-1.3l-0.9-1.2c-1.2-1.6-2.5-3.2-3.9-4.6c-1.4-1.4-2.9-2.7-4.5-3.8l-1.2-0.9
		c-0.4-0.3-0.8-0.5-1.2-0.8c-0.8-0.5-1.6-1-2.5-1.5c-1.7-0.9-3.4-1.6-5.2-2.3c-1.7-0.6-3.5-1.1-5.3-1.5c-0.9-0.2-1.8-0.3-2.7-0.4
		l-1.3-0.2c-0.4-0.1-0.9-0.1-1.3-0.1l-2.6-0.1c-0.9,0-1.7,0.1-2.6,0.1c-1.7,0.1-3.4,0.3-5,0.6c-0.8,0.1-1.6,0.3-2.4,0.6
		c-0.8,0.2-1.6,0.4-2.3,0.6l-2.2,0.8l-1.1,0.4l-1,0.5l-2,1c-0.7,0.3-1.3,0.7-1.9,1.1c-0.6,0.4-1.3,0.8-1.9,1.1l-1.7,1.3
		c-4,3.1-7.4,6.9-10,11.3c-2,3.3-3.4,6.8-4.3,10.6c-0.2,0.8-0.4,1.5-0.5,2.2c-0.1,0.7-0.2,1.3-0.3,1.9c-0.1,0.6-0.2,1.2-0.2,1.7
		c0,0.5,0,1-0.1,1.4c0,0.8,0,1.4-0.1,1.9C16.5,346.1,16.5,346.3,16.5,346.3z"/>
	<path class="st1" d="M31,367.2c-0.3-0.5-0.6-0.9-1-1.3c-0.9-1.2-1.7-2.5-2.5-3.8c-2.5-4.3-4.1-9.1-4.6-14c-0.5-5,0-10,1.6-14.7
		c0.5-1.4,1-2.8,1.7-4.2c0.3-0.5,0.5-1,0.7-1.5c0,0-0.1,0.1-0.3,0.4c-0.2,0.2-0.4,0.6-0.6,1.1c-0.7,1.3-1.3,2.7-1.8,4.2
		c-1.7,4.8-2.3,9.8-1.8,14.9c0.5,5,2.2,9.9,4.8,14.2c0.8,1.3,1.7,2.5,2.7,3.7c0.3,0.4,0.6,0.7,0.8,0.9C30.9,367.2,31,367.3,31,367.2
		z"/>
	<path class="st1" d="M33.1,370.8c-0.1,0.1,0.2,0.4,0.7,0.7c0.5,0.3,0.9,0.4,1,0.2c0.1-0.1-0.2-0.4-0.7-0.7
		C33.6,370.8,33.2,370.7,33.1,370.8z"/>
	<path class="st0" d="M84.9,363.2c0.1-0.1,0.2-0.3,0.2-0.5c0.1-0.3,0.4-0.8,0.6-1.4c0.7-1.7,1.2-3.5,1.6-5.4
		c1.3-6.1,1.2-12.3-0.5-18.3c-1.6-6-4.6-11.5-8.8-16.1c-1.3-1.4-2.6-2.7-4.1-3.8c-0.5-0.4-0.9-0.7-1.2-0.9s-0.4-0.3-0.5-0.3
		c0,0,0.5,0.5,1.5,1.4c1.4,1.2,2.7,2.5,3.9,3.9c4.1,4.6,7,10,8.6,16c1.6,5.9,1.8,12.1,0.6,18.1c-0.4,1.8-0.8,3.6-1.4,5.3
		C85.1,362.5,84.8,363.2,84.9,363.2z"/>
	<path class="st0" d="M61.6,314c1.5,0.5,3.1,0.6,4.7,0.4c-0.7-0.3-1.5-0.5-2.3-0.5C63.2,313.8,62.3,313.8,61.6,314z"/>
</g>
</svg>
